 <svg version="1.0" xmlns="http://www.w3.org/2000/svg"  width="300.000000pt" height="300.000000pt" viewBox="0 0 300.000000 300.000000"  preserveAspectRatio="xMidYMid meet">  <g transform="translate(0.000000,300.000000) scale(0.100000,-0.100000)" fill="#000000" stroke="none"> <path d="M1368 2330 c-83 -44 -116 -129 -79 -201 21 -41 22 -43 4 -52 -37 -20 -142 -136 -167 -186 -41 -80 -54 -152 -61 -336 -4 -134 -3 -180 9 -218 8 -26 10 -49 6 -52 -5 -3 -35 20 -67 52 -153 151 -200 386 -113 570 28 60 120 167 165 191 11 6 17 14 13 18 -12 12 -137 -76 -187 -133 -97 -109 -149 -272 -137 -428 3 -44 10 -96 16 -115 5 -19 10 -69 10 -110 0 -93 19 -168 69 -275 62 -133 119 -175 237 -175 36 0 59 6 75 19 l24 19 -23 89 c-12 48 -22 96 -22 106 0 33 16 17 40 -40 84 -210 185 -343 284 -376 63 -22 186 -22 226 -2 37 19 38 39 4 123 -30 75 -43 214 -25 278 13 50 51 88 79 80 44 -14 49 -80 26 -294 -14 -129 62 -164 205 -94 67 33 114 100 161 230 56 153 81 281 87 446 6 143 -8 286 -27 286 -4 0 -10 -30 -12 -67 -15 -185 -136 -319 -310 -339 -44 -5 -62 -12 -84 -35 -31 -33 -61 -36 -106 -13 -23 12 -46 15 -88 10 -62 -7 -72 -1 -103 60 -12 23 -30 36 -74 52 -80 30 -126 71 -164 148 -58 116 -52 248 17 389 51 104 58 111 91 96 24 -11 30 -9 67 19 23 17 57 38 76 47 77 37 87 67 48 149 -37 80 -112 105 -190 64z m131 -52 c17 -18 32 -39 33 -47 0 -9 2 -23 2 -31 2 -18 -157 -125 -162 -110 -2 6 -7 8 -12 5 -10 -6 -50 74 -50 101 0 24 56 94 76 94 8 0 13 3 11 8 -3 4 12 8 33 9 31 2 44 -3 69 -29z m-305 -427 c-49 -205 38 -401 209 -470 31 -13 59 -30 62 -40 3 -9 18 -30 35 -48 16 -18 30 -36 30 -41 0 -29 109 -89 134 -75 6 4 2 -3 -8 -15 -11 -12 -16 -22 -11 -22 4 0 2 -7 -5 -15 -17 -20 -23 -187 -9 -239 6 -22 11 -42 10 -44 -1 -1 6 -18 14 -38 22 -53 19 -73 -11 -80 -41 -10 -147 2 -189 22 -74 35 -153 141 -219 294 -16 36 -35 71 -44 78 -9 6 -12 12 -7 12 5 0 -1 7 -14 16 -21 15 -24 15 -42 -4 -22 -24 -26 -93 -8 -139 27 -70 7 -91 -74 -79 -71 11 -107 42 -153 131 -23 44 -41 82 -41 85 0 3 -7 29 -16 59 -10 30 -17 88 -17 130 0 42 -5 96 -11 121 -13 55 -19 220 -8 220 8 0 20 -30 23 -63 12 -109 132 -299 216 -342 25 -13 30 -13 53 5 22 17 25 25 19 58 -13 72 -4 452 10 452 4 0 8 7 8 15 0 34 65 143 78 131 2 -3 -4 -36 -14 -75z m997 -377 c2 -26 -3 -69 -16 -174 -3 -19 -16 -77 -29 -127 -13 -51 -21 -93 -17 -93 3 0 0 -4 -6 -8 -7 -4 -14 -17 -16 -27 -2 -11 -9 -30 -15 -42 -7 -13 -10 -23 -7 -23 3 0 -6 -18 -19 -39 -14 -21 -23 -41 -21 -43 7 -6 -84 -81 -103 -86 -44 -11 -114 -13 -125 -4 -14 12 -13 57 3 117 12 47 11 179 -2 216 -5 15 -20 37 -34 50 -13 12 -24 26 -24 29 0 12 37 50 47 50 6 0 16 6 22 14 6 7 35 17 63 20 29 4 57 11 63 15 5 5 21 11 35 14 27 7 57 27 101 68 16 15 31 24 34 21 3 -3 5 -1 5 4 0 5 11 22 25 38 14 16 25 34 25 39 0 23 10 -1 11 -29z m-514 -204 c57 0 62 -4 36 -32 -23 -26 -92 -24 -127 3 -38 30 -35 50 6 38 18 -5 57 -9 85 -9z"/> <path d="M1996 2230 c-37 -33 -69 -100 -60 -125 4 -9 20 -23 37 -32 17 -8 54 -38 83 -65 59 -56 76 -57 127 -9 61 56 73 124 34 182 -56 84 -156 106 -221 49z m159 -40 c21 -16 35 -30 32 -30 -3 0 0 -15 8 -32 12 -30 11 -35 -8 -63 -12 -16 -26 -35 -32 -41 -18 -18 -54 -9 -88 24 -18 18 -39 32 -47 32 -7 0 -10 3 -7 7 4 3 -2 13 -13 20 -15 11 -19 21 -14 36 25 79 102 100 169 47z"/> <path d="M1465 1791 c-69 -42 -105 -113 -90 -179 9 -41 48 -75 87 -75 27 0 42 10 90 64 53 59 57 67 51 99 -17 98 -70 133 -138 91z m79 -40 c9 -7 14 -16 12 -20 -3 -4 -1 -13 3 -20 15 -24 -60 -131 -91 -131 -20 0 -48 21 -48 36 0 9 -5 12 -12 8 -7 -5 -8 -3 -2 7 5 8 10 25 12 38 4 30 32 69 55 76 9 4 17 10 17 14 0 12 37 6 54 -8z"/> <path d="M1836 1728 c-52 -52 -54 -75 -12 -162 48 -103 88 -121 147 -68 42 38 51 108 21 175 -21 47 -48 71 -94 82 -23 6 -34 1 -62 -27z m79 -28 c4 -6 12 -7 18 -4 7 4 9 4 5 -1 -4 -4 -1 -14 7 -22 19 -19 30 -81 19 -112 -5 -14 -20 -31 -34 -38 -22 -11 -26 -9 -47 20 -13 18 -26 42 -30 55 -3 12 -9 22 -13 22 -14 0 -3 50 15 70 19 21 50 26 60 10z"/> <path d="M1567 1436 c-21 -21 -13 -42 19 -50 13 -4 34 -16 46 -28 18 -18 24 -19 42 -8 12 7 34 16 51 20 16 3 31 13 33 22 5 26 -36 46 -109 53 -54 6 -69 4 -82 -9z"/> </g> </svg> 